<svg width="40" height="40" viewBox="0 0 40 40" fill="none" xmlns="http://www.w3.org/2000/svg">
<circle opacity="0.5" cx="20" cy="20" r="20" fill="#FDDCDE"/>
<path d="M27 9L22 14.3659V26.1707L27 21.3415V9ZM29 13.2927V27.7805C27.9 27.4049 26.7 27.2439 25.5 27.2439C23.8 27.2439 21.35 27.9415 20 28.8537V14.3659C18.55 13.1854 16.45 12.7561 14.5 12.7561C12.55 12.7561 10.45 13.1854 9 14.3659V30.0878C9 30.3561 9.25 30.6244 9.5 30.6244C9.6 30.6244 9.65 30.5707 9.75 30.5707C11.1 29.8732 13.05 29.3902 14.5 29.3902C16.45 29.3902 18.55 29.8195 20 31C21.35 30.0878 23.8 29.3902 25.5 29.3902C27.15 29.3902 28.85 29.7122 30.25 30.5171C30.35 30.5707 30.4 30.5707 30.5 30.5707C30.75 30.5707 31 30.3024 31 30.0341V14.3659C30.4 13.8829 29.75 13.561 29 13.2927ZM18 27.6839C16.75 27.3405 15.5 27.2439 14.5 27.2439C13.44 27.2439 12.18 27.4478 11 27.7805V15.5785C11.91 15.1493 13.14 14.9024 14.5 14.9024C15.86 14.9024 17.09 15.1493 18 15.5785V27.6839Z" fill="#F8727A"/>
</svg>
