<svg width="40" height="40" viewBox="0 0 40 40" fill="none" xmlns="http://www.w3.org/2000/svg">
<circle opacity="0.5" cx="20" cy="20" r="20" fill="#5656FA"/>
<path d="M10.1818 27.2727H8V26.1818C8 24.1485 9.39066 22.4401 11.2727 21.9556M13.4545 18.3592C12.1834 17.91 11.2727 16.6977 11.2727 15.2727C11.2727 13.8478 12.1834 12.6355 13.4545 12.1862M29.8182 27.2727H32V26.1818C32 24.1485 30.6093 22.4401 28.7273 21.9556M26.5455 12.1862C27.8166 12.6355 28.7273 13.8478 28.7273 15.2727C28.7273 16.6977 27.8166 17.91 26.5455 18.3592M17.8182 21.8182H22.1818C24.5918 21.8182 26.5455 23.7718 26.5455 26.1818V27.2727H13.4545V26.1818C13.4545 23.7718 15.4082 21.8182 17.8182 21.8182ZM23.2727 15.2727C23.2727 17.0802 21.8075 18.5455 20 18.5455C18.1925 18.5455 16.7273 17.0802 16.7273 15.2727C16.7273 13.4652 18.1925 12 20 12C21.8075 12 23.2727 13.4652 23.2727 15.2727Z" stroke="#0000FF" stroke-width="1.5" stroke-linecap="round" stroke-linejoin="round"/>
</svg>
