<svg width="26" height="18" viewBox="0 0 26 18" fill="none" xmlns="http://www.w3.org/2000/svg">
<path d="M3.18182 16.2727H1V15.1818C1 13.1485 2.39066 11.4401 4.27273 10.9556M6.45455 7.35924C5.18343 6.90996 4.27273 5.6977 4.27273 4.27274C4.27273 2.84777 5.18343 1.63551 6.45455 1.18623M22.8182 16.2727H25V15.1818C25 13.1485 23.6093 11.4401 21.7273 10.9556M19.5455 1.18623C20.8166 1.63551 21.7273 2.84777 21.7273 4.27274C21.7273 5.6977 20.8166 6.90996 19.5455 7.35924M10.8182 10.8182H15.1818C17.5918 10.8182 19.5455 12.7718 19.5455 15.1818V16.2727H6.45455V15.1818C6.45455 12.7718 8.40821 10.8182 10.8182 10.8182ZM16.2727 4.27273C16.2727 6.0802 14.8075 7.54545 13 7.54545C11.1925 7.54545 9.72727 6.0802 9.72727 4.27273C9.72727 2.46525 11.1925 1 13 1C14.8075 1 16.2727 2.46525 16.2727 4.27273Z" stroke="#0000FF" stroke-width="1.5" stroke-linecap="round" stroke-linejoin="round"/>
</svg>
