<svg width="22" height="22" viewBox="0 0 22 22" fill="none" xmlns="http://www.w3.org/2000/svg">
<path d="M18 0L13 5.36585V17.1707L18 12.3415V0ZM20 4.29268V18.7805C18.9 18.4049 17.7 18.2439 16.5 18.2439C14.8 18.2439 12.35 18.9415 11 19.8537V5.36585C9.55 4.18537 7.45 3.7561 5.5 3.7561C3.55 3.7561 1.45 4.18537 0 5.36585V21.0878C0 21.3561 0.25 21.6244 0.5 21.6244C0.6 21.6244 0.65 21.5707 0.75 21.5707C2.1 20.8732 4.05 20.3902 5.5 20.3902C7.45 20.3902 9.55 20.8195 11 22C12.35 21.0878 14.8 20.3902 16.5 20.3902C18.15 20.3902 19.85 20.7122 21.25 21.5171C21.35 21.5707 21.4 21.5707 21.5 21.5707C21.75 21.5707 22 21.3024 22 21.0341V5.36585C21.4 4.88293 20.75 4.56098 20 4.29268ZM9 18.6839C7.75 18.3405 6.5 18.2439 5.5 18.2439C4.44 18.2439 3.18 18.4478 2 18.7805V6.57854C2.91 6.14927 4.14 5.90244 5.5 5.90244C6.86 5.90244 8.09 6.14927 9 6.57854V18.6839Z" fill="#F8727A"/>
</svg>
