<svg width="100" height="100" viewBox="0 0 100 100" fill="none" xmlns="http://www.w3.org/2000/svg">
<rect width="100" height="100" rx="50" fill="#FDDCDE"/>
<path d="M42.336 48.076C43.248 48.22 44.076 48.592 44.82 49.192C45.588 49.792 46.188 50.536 46.62 51.424C47.076 52.312 47.304 53.26 47.304 54.268C47.304 55.54 46.98 56.692 46.332 57.724C45.684 58.732 44.736 59.536 43.488 60.136C42.264 60.712 40.812 61 39.132 61H29.772V35.908H38.772C40.476 35.908 41.928 36.196 43.128 36.772C44.328 37.324 45.228 38.08 45.828 39.04C46.428 40 46.728 41.08 46.728 42.28C46.728 43.768 46.32 45.004 45.504 45.988C44.712 46.948 43.656 47.644 42.336 48.076ZM33.048 46.744H38.556C40.092 46.744 41.28 46.384 42.12 45.664C42.96 44.944 43.38 43.948 43.38 42.676C43.38 41.404 42.96 40.408 42.12 39.688C41.28 38.968 40.068 38.608 38.484 38.608H33.048V46.744ZM38.844 58.3C40.476 58.3 41.748 57.916 42.66 57.148C43.572 56.38 44.028 55.312 44.028 53.944C44.028 52.552 43.548 51.46 42.588 50.668C41.628 49.852 40.344 49.444 38.736 49.444H33.048V58.3H38.844ZM66.6821 55.42H55.7381L53.7221 61H50.2661L59.3381 36.052H63.1181L72.1541 61H68.6981L66.6821 55.42ZM65.7461 52.756L61.2101 40.084L56.6741 52.756H65.7461Z" fill="#1A1A1A"/>
<rect x="0.5" y="0.5" width="99" height="99" rx="49.5" stroke="#959595" stroke-opacity="0.5"/>
</svg>
