<svg width="100" height="100" viewBox="0 0 100 100" fill="none" xmlns="http://www.w3.org/2000/svg">
<rect width="100" height="100" rx="50" fill="#FDDCDE"/>
<path d="M44.604 55.42H33.66L31.644 61H28.188L37.26 36.052H41.04L50.076 61H46.62L44.604 55.42ZM43.668 52.756L39.132 40.084L34.596 52.756H43.668ZM66.5938 48.076C67.5058 48.22 68.3338 48.592 69.0778 49.192C69.8458 49.792 70.4458 50.536 70.8778 51.424C71.3338 52.312 71.5618 53.26 71.5618 54.268C71.5618 55.54 71.2378 56.692 70.5898 57.724C69.9418 58.732 68.9938 59.536 67.7458 60.136C66.5218 60.712 65.0698 61 63.3898 61H54.0298V35.908H63.0298C64.7338 35.908 66.1858 36.196 67.3858 36.772C68.5858 37.324 69.4858 38.08 70.0858 39.04C70.6858 40 70.9858 41.08 70.9858 42.28C70.9858 43.768 70.5778 45.004 69.7618 45.988C68.9698 46.948 67.9138 47.644 66.5938 48.076ZM57.3058 46.744H62.8138C64.3498 46.744 65.5378 46.384 66.3778 45.664C67.2178 44.944 67.6378 43.948 67.6378 42.676C67.6378 41.404 67.2178 40.408 66.3778 39.688C65.5378 38.968 64.3258 38.608 62.7418 38.608H57.3058V46.744ZM63.1018 58.3C64.7338 58.3 66.0058 57.916 66.9178 57.148C67.8298 56.38 68.2858 55.312 68.2858 53.944C68.2858 52.552 67.8058 51.46 66.8458 50.668C65.8858 49.852 64.6018 49.444 62.9938 49.444H57.3058V58.3H63.1018Z" fill="#1A1A1A"/>
<rect x="0.5" y="0.5" width="99" height="99" rx="49.5" stroke="#959595" stroke-opacity="0.5"/>
</svg>
