<svg width="23" height="23" viewBox="0 0 23 23" fill="none" xmlns="http://www.w3.org/2000/svg">
<path d="M3.04167 19.9587H4.73333L15.1552 9.53678L13.4635 7.84512L3.04167 18.267V19.9587ZM20.3208 7.7847L15.1854 2.7097L16.8771 1.01803C17.3403 0.554839 17.9094 0.323242 18.5845 0.323242C19.2587 0.323242 19.8274 0.554839 20.2906 1.01803L21.9823 2.7097C22.4455 3.17289 22.6872 3.73195 22.7073 4.38687C22.7274 5.04098 22.5059 5.59963 22.0427 6.06283L20.3208 7.7847ZM18.5688 9.56699L5.76042 22.3753H0.625V17.2399L13.4333 4.43158L18.5688 9.56699ZM14.3094 8.69095L13.4635 7.84512L15.1552 9.53678L14.3094 8.69095Z" fill="#FDF8F8"/>
</svg>
