<svg width="25" height="49" viewBox="0 0 25 49" fill="none" xmlns="http://www.w3.org/2000/svg">
<path d="M24.3125 0.314453C21.1608 0.314453 18.0399 0.93523 15.1281 2.14135C12.2163 3.34746 9.57054 5.11528 7.34194 7.34389C5.11333 9.5725 3.3455 12.2182 2.13939 15.1301C0.933278 18.0419 0.3125 21.1627 0.3125 24.3145C0.3125 27.4662 0.933279 30.587 2.13939 33.4989C3.3455 36.4107 5.11333 39.0564 7.34194 41.285C9.57054 43.5136 12.2163 45.2814 15.1281 46.4876C18.0399 47.6937 21.1608 48.3145 24.3125 48.3145V44.063C21.7191 44.063 19.1511 43.5522 16.7551 42.5597C14.359 41.5673 12.182 40.1126 10.3482 38.2788C8.51433 36.445 7.05966 34.2679 6.0672 31.8719C5.07475 29.4759 4.56393 26.9079 4.56393 24.3145C4.56393 21.721 5.07475 19.153 6.0672 16.757C7.05966 14.361 8.51433 12.1839 10.3482 10.3501C12.182 8.51628 14.359 7.06161 16.7551 6.06916C19.1511 5.0767 21.7191 4.56589 24.3125 4.56589V0.314453Z" fill="#FDDCDE"/>
</svg>
