<svg width="26" height="49" viewBox="0 0 26 49" fill="none" xmlns="http://www.w3.org/2000/svg">
<path d="M1.13279 48.3145C4.33015 48.3384 7.50007 47.7232 10.4564 46.505C13.4127 45.2868 16.0957 43.4902 18.348 41.2206C20.6003 38.951 22.3763 36.2543 23.5719 33.2887C24.7674 30.3232 25.3583 27.1486 25.3098 23.9516C25.2614 20.7545 24.5746 17.5993 23.2898 14.6713C22.005 11.7434 20.148 9.10166 17.8281 6.90136C15.5081 4.70105 12.7718 2.9865 9.77995 1.85842C6.78811 0.730338 3.60101 0.211463 0.405836 0.332269L0.566463 4.58067C3.19563 4.48126 5.81816 4.90822 8.28002 5.83647C10.7419 6.76472 12.9934 8.17555 14.9025 9.98609C16.8115 11.7966 18.3395 13.9704 19.3967 16.3797C20.4539 18.789 21.019 21.3852 21.0589 24.016C21.0988 26.6467 20.6125 29.2589 19.6288 31.6991C18.645 34.1393 17.1836 36.3584 15.3303 38.2259C13.477 40.0935 11.2692 41.5718 8.83662 42.5742C6.404 43.5766 3.79561 44.0829 1.16464 44.0631L1.13279 48.3145Z" fill="#F64F59"/>
</svg>
