<svg width="20" height="18" viewBox="0 0 20 18" fill="none" xmlns="http://www.w3.org/2000/svg">
<path d="M16.667 11.3612C17.7571 10.1098 18.3337 9 18.3337 9C18.3337 9 15.3034 3.16667 10.0003 3.16667C9.71597 3.16667 9.43816 3.18344 9.16699 3.21518C8.88181 3.24857 8.60399 3.29852 8.33366 3.36293M10.0003 6.5C10.2925 6.5 10.573 6.55013 10.8337 6.64225C11.544 6.89333 12.107 7.45632 12.3581 8.16667C12.4502 8.42732 12.5003 8.7078 12.5003 9M2.50033 1.5L17.5003 16.5M10.0003 11.5C9.70812 11.5 9.42764 11.4499 9.16699 11.3577C8.45664 11.1067 7.89365 10.5437 7.64258 9.83333C7.59521 9.69932 7.55894 9.56006 7.53489 9.41667M3.45617 6.5C3.1993 6.78709 2.96894 7.06868 2.76586 7.33333C2.04438 8.27353 1.66699 9 1.66699 9C1.66699 9 4.6973 14.8333 10.0003 14.8333C10.2847 14.8333 10.5625 14.8166 10.8337 14.7848" stroke="#F64F59" stroke-width="1.5" stroke-linecap="round" stroke-linejoin="round"/>
</svg>
