<svg width="20" height="22" viewBox="0 0 20 22" fill="none" xmlns="http://www.w3.org/2000/svg">
<path d="M6.75016 16.4167V17.5C6.75016 17.9268 6.83423 18.3494 6.99755 18.7437C7.16088 19.138 7.40027 19.4963 7.70206 19.7981C8.00386 20.0999 8.36213 20.3393 8.75644 20.5026C9.15075 20.6659 9.57337 20.75 10.0002 20.75C10.427 20.75 10.8496 20.6659 11.2439 20.5026C11.6382 20.3393 11.9965 20.0999 12.2983 19.7981C12.6 19.4963 12.8394 19.138 13.0028 18.7437C13.1661 18.3494 13.2502 17.9268 13.2502 17.5V16.4167M16.5002 7.75C16.5002 11 18.6668 16.4167 18.6668 16.4167H1.3335C1.3335 16.4167 3.50016 12.0833 3.50016 7.75C3.50016 4.20966 6.45983 1.25 10.0002 1.25C13.5405 1.25 16.5002 4.20967 16.5002 7.75Z" stroke="#BBBBBB" stroke-width="1.5" stroke-linecap="round" stroke-linejoin="round"/>
</svg>
