<svg width="50" height="24" viewBox="0 0 50 24" fill="none" xmlns="http://www.w3.org/2000/svg">
<rect x="0.3" y="0.3" width="49.4" height="23.4" rx="11.7" fill="#FBFBFB" stroke="#D2D2D2" stroke-width="0.6"/>
<circle cx="12" cy="12" r="10" fill="#FDDCDE"/>
<path d="M3 12H5M5.00006 19L7.00006 17M12 19V21M17 17L19 19M5 5L7 7M19 12H21M16.9999 7L18.9999 5M12 3V5M15 12C15 13.6569 13.6569 15 12 15C10.3431 15 9 13.6569 9 12C9 10.3431 10.3431 9 12 9C13.6569 9 15 10.3431 15 12Z" stroke="#F64F59" stroke-width="1.5" stroke-linecap="round" stroke-linejoin="round"/>
</svg>
