<svg width="15" height="15" viewBox="0 0 15 15" fill="none" xmlns="http://www.w3.org/2000/svg">
<path d="M0.661393 0.0478814L14.744 7.08298C14.9712 7.19648 15.0646 7.47519 14.9527 7.70552C14.908 7.79741 14.8347 7.87178 14.744 7.91706L0.661683 14.952C0.434498 15.0655 0.159577 14.9708 0.047631 14.7405C-0.00131994 14.6398 -0.0126672 14.5245 0.0156851 14.416L1.82131 7.50388L0.0153672 0.583833C-0.0494129 0.335607 0.0965577 0.0811402 0.341402 0.0154655C0.448428 -0.0132424 0.562086 -0.00172856 0.661393 0.0478814ZM1.15971 1.33341L2.63555 6.98875L2.69239 6.97759L2.7515 6.97376H9.17168C9.42494 6.97376 9.63026 7.18191 9.63026 7.43868C9.63026 7.66692 9.46803 7.85674 9.25411 7.89611L9.17168 7.9036H2.7515C2.7227 7.9036 2.69452 7.90091 2.66719 7.89576L1.16029 13.6663L13.5038 7.50002L1.15971 1.33341Z" fill="#F64F59"/>
</svg>
